# xmcd CD database file
#
# Track frame offsets:
#	150
#	16100
#	41237
#	60222
#	75772
#	97470
#	119225
#	128675
#	151947
#	168172
#
# Disc length: 2356 seconds
#
# Revision: 0
# Processed by: cddbd v1.5.1PL0 Copyright (c) Steve Scherf et al.
# Submitted via: CDex 1.51
#
DISCID=7409320a
DTITLE=Ifwhen - Ifwhen
DYEAR=2003
DGENRE=Dream Pop
TTITLE0=Look Up
TTITLE1=Almost Epual To Happiness
TTITLE2=All Of A Sudden
TTITLE3=Hear Less
TTITLE4=On and On and On
TTITLE5=Too Fast
TTITLE6=Suspended Animation
TTITLE7=Synclastic
TTITLE8=Slow Motion
TTITLE9=Tybalt
EXTD=YEAR: 2003
EXTT0=
EXTT1=
EXTT2=
EXTT3=
EXTT4=
EXTT5=
EXTT6=
EXTT7=
EXTT8=
EXTT9=
PLAYORDER=
